<?xml version="1.0" standalone="no"?>
<!DOCTYPE svg PUBLIC "-//W3C//DTD SVG 20010904//EN"
 "http://www.w3.org/TR/2001/REC-SVG-20010904/DTD/svg10.dtd">
<svg version="1.0" xmlns="http://www.w3.org/2000/svg"
 width="1024.000000pt" height="1024.000000pt" viewBox="0 0 1024.000000 1024.000000"
 preserveAspectRatio="xMidYMid meet">

<g transform="translate(0.000000,1024.000000) scale(0.100000,-0.100000)"
fill="#000000" stroke="none">
<path d="M2860 9589 c-824 -23 -1237 -177 -1661 -617 -292 -303 -442 -621
-508 -1077 -12 -77 -21 -148 -21 -157 0 -17 219 -18 4450 -18 3668 0 4450 2
4450 13 0 7 -7 63 -15 124 -54 410 -177 715 -402 993 -83 103 -260 273 -362
349 -285 211 -576 317 -1006 366 -77 9 -284 20 -460 25 -377 11 -4079 10
-4465 -1z"/>
</g>
</svg>
